<svg class="icon" viewBox="0 0 1024 1024" xmlns="http://www.w3.org/2000/svg" width="200" height="200"><defs><style/></defs><path d="M520 24C255.04 24 40 239.04 40 504c0 264.96 215.04 480 480 480 264.96 0 480-215.04 480-480 0-264.96-215.04-480-480-480zm0 896c-229.76 0-416-186.24-416-416S290.24 88 520 88s416 186.24 416 416-186.24 416-416 416zm224-544c0-88.32-71.68-160-160-160H328c-17.92 0-32 14.08-32 32v512c0 17.92 14.08 32 32 32s32-14.08 32-32V536h181.76c2.56 5.12 5.76 10.88 8.32 16l128 221.44c8.96 15.36 28.16 20.48 43.52 11.52 15.36-8.96 20.48-28.16 11.52-43.52L613.44 532.8C687.68 519.36 744 454.08 744 376zm-160 96H360V280h224c53.12 0 96 42.88 96 96s-42.88 96-96 96z"/></svg>