<svg class="icon" viewBox="0 0 1024 1024" xmlns="http://www.w3.org/2000/svg" width="200" height="200"><defs><style/></defs><path d="M217.327 962a76.33 76.33 0 0 1-45.188-15.063c-26.134-18.828-41.8-52.983-41.8-90.979V184.8C130.34 117.092 178.015 62 236.646 62h550.582c58.594 0 106.305 55.092 106.305 122.8v671.158c0 37.996-15.703 72-41.95 90.98a76.218 76.218 0 0 1-70.267 10.731c-71.059-23.535-225.452-140.987-269.398-175.18-44.02 34.193-198.339 151.645-269.36 175.18a79.983 79.983 0 0 1-25.23 4.331zm294.59-227.222l11.674 9.226c1.958 1.506 194.272 153.113 269.548 178.08a39.013 39.013 0 0 0 36.377-5.536c16.267-11.711 26.36-34.87 26.36-60.25V184.798c0-46.958-30.804-85.142-68.65-85.142h-550.58c-37.846 0-68.65 38.184-68.65 85.142v671.16c0 25.568 10.093 48.727 26.36 60.25a39.013 39.013 0 0 0 36.377 5.536c75.314-24.967 267.628-176.573 269.548-178.08z"/><path d="M489.737 587.126a22.18 19.77 0 1 0 44.36 0 22.18 19.77 0 1 0-44.36 0zM506.721 299.238h9.564q17.812 0 17.812 17.812v194.084q0 17.812-17.812 17.812h-9.564q-17.812 0-17.812-17.812V317.05q0-17.812 17.812-17.812z"/></svg>