<svg class="icon" viewBox="0 0 1024 1024" xmlns="http://www.w3.org/2000/svg" width="200" height="200"><defs><style/></defs><path d="M506.304 988.337c-58.901 0-111.59-46.603-143.694-75.213-9.19-8.155-20.453-18.123-24.984-20.324-15.794 1.165-28.61-7.379-41.943-16.311-8.285-5.567-17.736-11.78-29.386-17.088-14.629-6.602-34.047-25.114-42.979-75.99-.647-4.012-3.236-7.508-6.732-9.19-13.592-6.862-33.01-18.771-48.933-37.154-14.24-16.57-15.794-39.095-4.402-63.432 2.978-6.344 2.072-13.981-2.2-19.289-11.392-13.98-26.797-35.082-34.953-56.571-11.133-29.257 5.696-60.326 16.7-76.249 1.424-2.07 1.424-4.79 0-6.99-10.486-15.017-23.69-37.542-27.574-59.29-2.33-12.816.906-31.587 28.868-48.157 8.285-4.919 16.83-8.414 22.525-10.615 2.59-9.32 8.285-25.89 19.418-43.367 22.007-34.823 55.018-56.96 95.278-63.82 91.654-15.794 155.733 5.307 158.452 6.213l1.165.388.388.26c2.978 1.164 40.52 14.11 170.103 3.106 2.33-.259 4.53-.776 6.472-1.683 100.974-45.179 147.707-28.997 185.378-15.922 9.062 3.106 17.735 6.084 26.02 7.767 13.075 2.46 22.914 8.414 29.257 17.605 7.12 10.486 9.191 24.079 5.955 40.649-1.295 6.861 2.589 13.593 9.062 16.052a173.552 173.552 0 0 0 25.243 7.638c8.285 1.812 15.017 6.343 19.548 13.334 7.249 11.133 8.414 28.091 3.495 50.098-.518 2.072.259 4.402 1.942 5.826 8.802 7.638 21.618 21.36 32.622 43.496 9.838 19.807 7.12 38.707-7.508 53.465-2.33 2.33-2.978 6.214-1.424 9.32 4.79 9.321 8.026 21.23 9.838 35.341 2.848 22.914-6.99 42.59-27.832 55.407-2.33 1.424-3.237 4.66-2.072 7.378 7.25 16.312 11.78 35.341 13.593 56.701 1.424 17.865-6.084 28.868-12.686 34.953-15.664 14.37-42.073 15.923-59.29 15.016.906 5.955 2.33 14.37 4.79 25.632 4.66 21.748-12.946 35.212-23.82 41.296-13.204 7.508-30.033 12.169-41.814 14.758-5.178 1.165-9.061 5.178-10.097 10.356-2.071 10.356-3.754 21.49-5.178 33.01-2.978 25.762-30.81 38.06-76.248 33.659-2.33-.26-4.66.259-6.603 1.553-7.896 4.79-20.712 12.298-36.765 20.842-6.343 3.366-14.11.906-17.476-5.307-3.366-6.344-.906-14.11 5.308-17.477 15.534-8.285 27.832-15.534 35.47-20.065 6.861-4.142 14.628-5.955 22.525-5.178 22.266 2.2 46.862-.388 48.157-11.004 1.424-12.168 3.236-23.949 5.437-34.952 2.977-15.276 14.758-27.185 29.904-30.551 28.868-6.344 47.639-16.83 45.826-25.244-7.12-33.528-6.731-44.79-6.472-46.603l1.294-13.981 13.852 2.33c10.097 1.683 41.813 4.013 53.723-6.861 2.201-2.071 5.049-5.567 4.402-13.722-1.942-22.913-7.25-38.836-11.392-48.286-6.473-14.5-1.165-31.717 12.168-40.002 12.17-7.508 17.347-17.346 15.664-30.033-1.424-11.133-3.883-20.195-7.25-26.797-6.73-13.204-4.271-28.998 6.215-39.354 6.602-6.602 7.508-13.851 2.718-23.56-9.062-18.253-19.418-29.386-26.408-35.47-8.803-7.639-12.687-19.548-10.227-30.94 3.754-16.7 2.46-26.668 0-30.422-.647-.906-1.424-1.683-3.107-2.071-9.45-1.942-19.289-4.92-29.127-8.803-18.253-6.99-28.868-26.02-25.244-45.05 1.295-6.602 1.942-15.664-1.942-21.23-2.33-3.366-6.472-5.696-12.557-6.732-10.226-1.942-19.677-5.178-29.774-8.673-35.082-12.17-74.695-26.02-166.348 15.016-4.66 2.071-9.71 3.366-14.887 3.884-134.114 11.392-174.892-1.942-182.53-5.049-21.101-6.86-77.931-16.7-145.247-5.049-79.744 13.723-95.408 93.337-95.537 94.113l-1.424 7.897-7.768 2.2c-14.24 4.143-42.978 17.348-40.39 31.846 3.237 17.995 16.053 38.448 23.432 49.063 7.638 10.875 7.638 25.503 0 36.506-8.156 11.651-20.713 34.047-13.852 52.3 6.862 18.253 20.584 36.894 30.681 49.322 10.615 12.945 12.816 31.198 5.696 46.603-6.99 15.017-6.861 27.056.647 35.6 13.075 15.146 29.516 25.243 40.908 30.94 10.874 5.436 18.512 15.793 20.712 27.832 5.308 30.033 15.794 51.264 28.092 56.83 13.592 6.084 24.467 13.334 33.14 19.03 12.298 8.155 19.547 12.686 26.538 11.91 11.521-1.295 22.137 8.155 43.238 26.797 32.88 29.256 82.72 73.4 134.761 68.222 20.972-2.072 45.568-8.415 73.27-18.9 6.732-2.59 14.111.906 16.7 7.508 2.46 6.731-.906 14.11-7.508 16.7-29.774 11.262-56.7 18.123-79.873 20.324-4.013 0-7.638.129-11.133.129zM440.8 296.147z"/><path d="M520.673 320.355c-5.178 0-10.097-3.107-12.039-8.285-2.46-6.214.26-13.075 6.085-16.182 1.294-2.589 6.472-17.735-5.308-73.14-9.191-43.756-26.15-98.515-47.64-154.051-2.588-6.732.778-14.11 7.38-16.7 6.731-2.589 14.11.777 16.7 7.38 23.69 61.49 41.813 121.168 50.745 167.771 10.874 56.572 7.38 85.052-11.392 92.301-1.424.647-2.977.906-4.53.906z"/><path d="M565.076 247.861c-14.11 0-27.056-1.812-37.542-6.084-6.602-2.719-9.709-10.357-6.99-16.959 2.718-6.602 10.356-9.709 16.958-6.99 31.717 13.204 111.201-7.509 155.992-25.891-6.214-4.53-12.427-10.486-19.03-16.7-11.78-11.133-25.113-23.69-36.117-26.02-43.755-9.32-120.392.13-121.169.13-7.12.906-13.592-4.143-14.499-11.263-.906-7.12 4.143-13.592 11.263-14.499 3.366-.388 81.815-10.097 129.713.13 17.994 3.883 34.046 19.03 48.415 32.493 6.344 5.955 12.298 11.65 17.477 15.275 7.378 5.308 11.391 14.24 10.356 23.302-1.036 9.062-6.861 16.829-15.276 20.324-25.761 11.004-90.229 32.752-139.55 32.752zM360.54 755.321a13.15 13.15 0 0 1-4.401-.778c-59.808-21.877-93.984-106.928-93.984-233.534 0-7.12 5.826-12.946 12.945-12.946s12.946 5.826 12.946 12.946c0 113.401 28.739 191.591 76.895 209.197 6.732 2.46 10.227 9.839 7.768 16.57-1.942 5.308-6.861 8.544-12.169 8.544zM255.681 440.747a12.945 12.945 0 1 0 25.891 0 12.945 12.945 0 1 0-25.89 0z"/></svg>