<?xml version="1.0" standalone="no"?><!DOCTYPE svg PUBLIC "-//W3C//DTD SVG 1.1//EN" "http://www.w3.org/Graphics/SVG/1.1/DTD/svg11.dtd"><svg t="1607587234385" class="icon" viewBox="0 0 1024 1024" version="1.1" xmlns="http://www.w3.org/2000/svg" p-id="3991" xmlns:xlink="http://www.w3.org/1999/xlink" width="200" height="200"><defs><style type="text/css"></style></defs><path d="M386.9 808.5m-25.2 0a25.2 25.2 0 1 0 50.4 0 25.2 25.2 0 1 0-50.4 0Z" p-id="3992"></path><path d="M874.8 377.6c-49.1-49.1-114.3-76.2-183.7-76.4a40.3 40.3 0 0 0-11.1-9l-5.4-83.2 25.5-88c3.8-13.3-3.8-27.1-17.1-31-13.3-3.8-27.1 3.8-31 17.1l-27.9 96.4 6.2 96.5h0.4c-2.7 2.9-5 6.2-6.8 9.8-41.1 10.8-79.1 31.6-110.6 60.7-25.1-12.3-51.8-21.2-79.5-26.2-2.2-4.5-5.2-8.6-8.9-12l5.3-41.5 94.2 28.5c13.2 4 27.2-3.5 31.2-16.7s-3.5-27.2-16.7-31.2l-330.3-99.8c-1.7-0.5-3.3-1.2-4.8-2L118.7 123c-12.1-6.6-27.3-2.2-33.9 9.9-6.6 12.1-2.2 27.3 9.9 33.9l89.7 49.1c1.5 0.8 3.1 1.5 4.8 2L391.6 279l-5.7 44.3c-8.9 2.7-16.7 8.4-22 16.3-76.5 3.4-148 34.7-202.5 89-57.9 57.6-89.8 134.3-89.8 215.8s31.9 158.2 89.8 215.8c57.9 57.6 134.8 89.3 216.6 89.3s158.8-31.7 216.6-89.3c13.8-13.8 26.2-28.6 36.9-44.3 19.2 4.4 38.9 6.7 58.9 6.7 69.6 0 135.1-27.1 184.3-76.4 49.2-49.2 76.4-114.7 76.4-184.3s-27-135.1-76.3-184.3zM378 879.6c-130.4 0-236.4-105.5-236.4-235.2 0-121 92.3-220.9 210.5-233.8 8.5-0.9 17.2-1.4 25.9-1.4 15.4 0 30.5 1.5 45.1 4.3C532 434.5 614.5 530 614.5 644.4c0 129.7-106.1 235.2-236.5 235.2z m312.5-127c-8.5 0-16.8-0.6-25.1-1.6 12.6-33.6 19.1-69.6 19.1-106.6 0-81.5-31.9-158.2-89.8-215.8-6.4-6.4-13.1-12.5-19.9-18.2 16.8-12.8 35.5-22.7 55.4-29.4 19.3-6.4 39.6-9.8 60.3-9.8 4.2 0 8.4 0.1 12.6 0.4 99.3 6.5 178.1 89.4 178.1 190.3 0 105.2-85.5 190.7-190.7 190.7z" p-id="3993"></path></svg>