<svg class="icon" viewBox="0 0 1072 1024" xmlns="http://www.w3.org/2000/svg" width="209.375" height="200"><defs><style/></defs><path d="M1005.874 775.337H61.12a28.308 28.308 0 0 1-20.571-8.16A28.869 28.869 0 0 1 32 746.606V62.103C32 45.737 44.937 32.366 61.12 32h948.16a29.257 29.257 0 0 1 28.434 29.394v683.863a30.629 30.629 0 0 1-29.805 28.732l-2.035 1.371zM88.23 715.84H980.16V90.811H88.229V715.84z"/><path d="M512.983 753.486h65.6v174.903h-65.6z"/><path d="M796.16 972.114H275.337a28.709 28.709 0 0 1-24.8-28.137c0-14.057 10.514-26.011 24.8-28.137h518.789c15.885.343 28.571 12.983 28.571 28.457.777 7.246-1.691 14.446-6.766 19.794a26.194 26.194 0 0 1-19.771 8zM397.714 648.983a30.011 30.011 0 0 1-25.143-15.223L281.44 453.006 168.571 591.383c-10.057 11.04-26.971 13.028-39.428 4.64a26.651 26.651 0 0 1-3.406-37.737l136-172.823a26.217 26.217 0 0 1 28.572-9.28c9.28 1.006 17.462 6.468 21.737 14.583l85.668 169.508L539.84 266.286c3.657-8.915 12.571-14.72 22.423-14.583 9.828-.846 19.428 3.428 25.143 11.268L704.389 420.55 900.89 173.577a29.074 29.074 0 0 1 38.743-5.303c11.68 8.983 14.08 25.303 5.44 37.097L724.777 480.8c-5.554 6.811-14.194 10.514-23.108 9.943a25.326 25.326 0 0 1-21.098-11.246L568.39 329.19 422.88 633.097c-4.754 9.394-14.4 15.497-25.143 15.886z"/></svg>