<?xml version="1.0" standalone="no"?><!DOCTYPE svg PUBLIC "-//W3C//DTD SVG 1.1//EN" "http://www.w3.org/Graphics/SVG/1.1/DTD/svg11.dtd"><svg t="1598234014544" class="icon" viewBox="0 0 1024 1024" version="1.1" xmlns="http://www.w3.org/2000/svg" p-id="1204" xmlns:xlink="http://www.w3.org/1999/xlink" width="200" height="200"><defs><style type="text/css"></style></defs><path d="M512 1021.38311111c-68.72177778 0-135.50933333-13.53955555-198.31466667-40.04977778-60.64355555-25.71377778-115.14311111-62.35022222-161.90577778-109.11288888s-83.51288889-101.26222222-109.11288888-161.90577778C16.15644445 647.50933333 2.61688889 580.72177778 2.61688889 512s13.53955555-135.50933333 40.04977778-198.31466667c25.71377778-60.64355555 62.35022222-115.14311111 109.11288888-161.90577778s101.26222222-83.51288889 161.90577778-109.11288888C376.49066667 16.15644445 443.27822222 2.61688889 512 2.61688889s135.50933333 13.53955555 198.31466667 40.04977778c60.64355555 25.71377778 115.14311111 62.35022222 161.90577778 109.11288888s83.51288889 101.26222222 109.11288888 161.90577778c26.51022222 62.80533333 40.04977778 129.47911111 40.04977778 198.31466667s-13.53955555 135.50933333-40.04977778 198.31466667c-25.71377778 60.64355555-62.35022222 115.14311111-109.11288888 161.90577778s-101.26222222 83.51288889-161.90577778 109.11288888c-62.80533333 26.51022222-129.59288889 40.04977778-198.31466667 40.04977778z m0-977.92c-258.38933333 0-468.53688889 210.14755555-468.53688889 468.53688889S253.61066667 980.53688889 512 980.53688889 980.53688889 770.38933333 980.53688889 512 770.38933333 43.46311111 512 43.46311111z" p-id="1205"></path><path d="M512 454.88355555c-5.68888889 0-11.264-2.38933333-15.13244445-6.71288888-0.45511111-0.45511111-38.34311111-42.21155555-75.776-83.968-22.07288889-24.46222222-39.59466667-44.25955555-52.224-58.70933334-7.50933333-8.64711111-13.42577778-15.47377778-17.52177777-20.25244444-7.28177778-8.64711111-11.264-13.53955555-11.264-21.61777778 0-54.04444445 44.032-98.07644445 98.07644444-98.07644444 34.01955555 0 55.97866667 18.54577778 73.61422223 36.18133333 17.63555555-17.52177778 39.59466667-36.18133333 73.61422222-36.18133333 54.04444445 0 98.07644445 44.032 98.07644444 98.07644444 0 8.07822222-3.98222222 12.97066667-11.264 21.61777778-3.98222222 4.89244445-9.89866667 11.60533333-17.52177778 20.25244444-12.62933333 14.336-30.26488889 34.13333333-52.224 58.70933334-37.43288889 41.75644445-75.32088889 83.51288889-75.776 83.968-3.41333333 4.20977778-8.98844445 6.71288889-14.67733333 6.71288888zM381.26933333 257.47911111c16.27022222 19.91111111 81.80622222 92.72888889 130.73066667 146.65955556 48.92444445-53.93066667 114.34666667-126.86222222 130.73066667-146.65955556-3.18577778-28.672-27.53422222-51.2-57.00266667-51.2-20.25244445 0-32.65422222 11.60533333-51.31377778 30.60622222-2.61688889 2.73066667-5.23377778 5.46133333-8.07822222 8.192-7.96444445 7.85066667-20.70755555 7.85066667-28.55822222 0-2.84444445-2.73066667-5.46133333-5.46133333-8.07822223-8.192-18.54577778-19.00088889-30.94755555-30.60622222-51.31377777-30.60622222-29.58222222 0.11377778-53.93066667 22.528-57.11644445 51.2zM263.73688889 683.69066667c-54.04444445 0-98.07644445-44.032-98.07644444-98.07644445 0-34.01955555 18.54577778-56.09244445 36.18133333-73.61422222-17.52177778-17.63555555-36.18133333-39.59466667-36.18133333-73.61422222 0-54.04444445 44.032-98.07644445 98.07644444-98.07644445 8.07822222 0 12.97066667 3.98222222 21.61777778 11.264 4.89244445 3.98222222 11.60533333 9.89866667 20.25244444 17.52177778 14.336 12.62933333 34.13333333 30.15111111 58.70933334 52.224 41.75644445 37.43288889 83.51288889 75.32088889 83.968 75.776 4.20977778 3.86844445 6.71288889 9.44355555 6.71288888 15.13244444s-2.38933333 11.264-6.71288888 15.13244445c-0.45511111 0.45511111-42.21155555 38.34311111-83.968 75.776-24.46222222 22.07288889-44.25955555 39.59466667-58.70933334 52.224-8.64711111 7.50933333-15.47377778 13.42577778-20.25244444 17.52177778-8.64711111 6.82666667-13.53955555 10.80888889-21.61777778 10.80888889z m-6.25777778-302.42133334c-28.672 3.18577778-51.2 27.53422222-51.2 57.00266667 0 20.25244445 11.60533333 32.65422222 30.60622222 51.31377778 2.73066667 2.61688889 5.46133333 5.23377778 8.192 8.07822222 7.85066667 7.96444445 7.85066667 20.70755555 0 28.55822222-2.73066667 2.84444445-5.46133333 5.46133333-8.192 8.07822223-19.00088889 18.54577778-30.60622222 30.94755555-30.60622222 51.31377777 0 29.58222222 22.41422222 53.81688889 51.2 57.00266667 19.91111111-16.27022222 92.72888889-81.80622222 146.65955556-130.73066667-53.93066667-48.81066667-126.74844445-114.23288889-146.65955556-130.61688889zM585.61422222 858.33955555c-34.01955555 0-56.09244445-18.54577778-73.61422222-36.18133333-17.63555555 17.52177778-39.59466667 36.18133333-73.61422222 36.18133333-54.04444445 0-98.07644445-44.032-98.07644445-98.07644444 0-8.07822222 3.98222222-12.97066667 11.264-21.61777778 3.98222222-4.89244445 9.89866667-11.60533333 17.52177778-20.25244444 12.62933333-14.336 30.26488889-34.13333333 52.224-58.70933334 37.43288889-41.75644445 75.32088889-83.51288889 75.776-83.968 3.86844445-4.20977778 9.44355555-6.71288889 15.13244444-6.71288888s11.264 2.38933333 15.13244445 6.71288888c0.45511111 0.45511111 38.34311111 42.21155555 75.776 83.968 22.07288889 24.46222222 39.59466667 44.25955555 52.224 58.70933334 7.50933333 8.64711111 13.42577778 15.47377778 17.52177778 20.25244444 7.28177778 8.64711111 11.264 13.53955555 11.264 21.61777778-0.45511111 54.04444445-44.48711111 98.07644445-98.53155556 98.07644444zM512 772.89244445c5.23377778 0 10.35377778 1.93422222 14.336 5.80266666 2.84444445 2.73066667 5.46133333 5.46133333 8.07822222 8.192 18.54577778 19.00088889 30.94755555 30.60622222 51.31377778 30.60622222 29.58222222 0 53.81688889-22.41422222 57.00266667-51.2-16.27022222-19.79733333-81.80622222-92.61511111-130.73066667-146.54577778-48.92444445 53.93066667-114.34666667 126.86222222-130.73066667 146.65955556 3.18577778 28.672 27.53422222 51.2 57.00266667 51.2 20.25244445 0 32.65422222-11.60533333 51.31377778-30.60622222 2.61688889-2.73066667 5.23377778-5.46133333 8.07822222-8.192 3.98222222-3.98222222 9.10222222-5.91644445 14.336-5.91644444zM760.26311111 683.69066667c-8.07822222 0-12.97066667-3.98222222-21.61777778-11.264-4.89244445-3.98222222-11.60533333-9.89866667-20.25244444-17.52177778-14.336-12.62933333-34.13333333-30.15111111-58.70933334-52.224-41.75644445-37.43288889-83.51288889-75.32088889-83.968-75.776-4.20977778-3.86844445-6.71288889-9.44355555-6.71288888-15.13244444s2.38933333-11.264 6.71288888-15.13244445c0.45511111-0.45511111 42.21155555-38.34311111 83.968-75.776 24.46222222-22.07288889 44.25955555-39.59466667 58.70933334-52.224 8.64711111-7.50933333 15.47377778-13.42577778 20.25244444-17.52177778 8.64711111-7.28177778 13.53955555-11.264 21.61777778-11.264 54.04444445 0 98.07644445 44.032 98.07644444 98.07644445 0 34.01955555-18.54577778 55.97866667-36.18133333 73.61422222 17.52177778 17.63555555 36.18133333 39.59466667 36.18133333 73.61422222 0 54.49955555-44.032 98.53155555-98.07644444 98.53155556zM619.86133333 512c53.93066667 48.92444445 126.86222222 114.34666667 146.65955556 130.73066667 28.672-3.18577778 51.2-27.53422222 51.2-57.00266667 0-20.25244445-11.60533333-32.65422222-30.60622222-51.31377778-2.73066667-2.61688889-5.46133333-5.23377778-8.192-8.07822222-7.85066667-7.96444445-7.85066667-20.70755555 0-28.55822222 2.73066667-2.84444445 5.46133333-5.46133333 8.192-8.07822223 19.00088889-18.54577778 30.60622222-30.94755555 30.60622222-51.31377777 0-29.58222222-22.41422222-53.81688889-51.2-57.00266667-19.91111111 16.27022222-92.72888889 81.69244445-146.65955556 130.61688889z" p-id="1206"></path></svg>