<svg class="icon" viewBox="0 0 1024 1024" xmlns="http://www.w3.org/2000/svg" width="200" height="200"><defs><style/></defs><path d="M920.255 896.922c17.519 0 31.719 14.48 31.719 32.319 0 17.84-14.2 32.319-31.72 32.319H103.72C86.199 961.56 72 947.08 72 929.241c0-17.84 14.2-32.319 31.719-32.319h816.536zm-758.178-61.078c-9.88 0-19.2-4.66-25.199-12.64a32.799 32.799 0 0 1-5.46-28.079l60.138-228.593a47.619 47.619 0 0 1 12.86-30.56l.7-.78 61.978-63.077L655.862 75.927a46.059 46.059 0 0 1 65.959 0l154.155 157.115a48.199 48.199 0 0 1 0 67.218L487.188 696.448l-61.959 63.138-.76.72c-8.1 7.94-18.759 12.6-29.999 13.12l-224.193 61.258a30.84 30.84 0 0 1-8.24 1.16zm417.348-590.702L334.312 495.054 464.828 627.87l245.153-249.792-130.456-132.936h-.06zM688.82 133.705l-64.558 65.798L754.78 332.439l64.558-65.858L688.82 133.645v.06zM253.895 579.01l-46.939 178.775 175.435-47.898c.86-.26 1.72-.48 2.6-.64l34.999-35.62-130.517-132.875-34.998 35.599c-.16.92-.36 1.82-.6 2.72v-.06z"/></svg>