<svg class="icon" viewBox="0 0 1024 1024" xmlns="http://www.w3.org/2000/svg" width="200" height="200"><defs><style/></defs><path d="M512 76.383c-240.34 0-435.434 194.851-435.434 435.435S271.416 947.252 512 947.252s435.434-195.338 435.434-435.678S752.584 76.384 512 76.384zm0 822.338c-213.703 0-387.147-173.079-387.147-387.147 0-213.946 173.322-386.904 387.147-386.904 213.703 0 387.147 173.323 387.147 387.148C899.026 725.52 725.703 898.72 512 898.72z"/><path d="M572.572 275.37c8.635 0 34.786-9.974 34.786-9.974 24.934-6.325 41.11 13.744 29.92 34.786l-23.596 51.084c6.325 6.325 37.34 36.124 46.098 44.882 58.626 59.72 77.235 112.142 77.235 178.187 0 115.792-90.857 206.649-224.164 206.649s-224.163-90.857-224.163-206.649c0-66.045 19.947-118.345 78.451-178.187 9.974-9.974 41.11-41.111 46.098-44.882 0 0-8.636-16.176-27.367-48.53-12.406-22.38 4.987-42.327 29.92-34.786l27.368 7.42c4.986 1.216 13.744 1.216 19.947-1.217l22.38-11.19c9.973-6.324 31.137-9.973 47.314 1.217 16.176 11.19 31.137 11.19 39.773 11.19zM438.049 377.417c-4.987 4.987-36.124 34.786-44.881 44.881-52.3 53.517-67.261 98.399-67.261 151.916 0 94.627 74.68 170.646 188.04 170.646 113.236 0 185.606-74.68 185.606-170.646 0-54.855-11.19-99.615-64.707-153.132-8.636-8.636-39.895-38.557-44.881-44.882-1.217-1.216-6.325-6.324-7.42-8.635h-135.86c-1.095 2.432-7.42 8.757-8.636 9.852zm61.058-82.1c-2.554 1.216-12.406 8.635-17.514 11.19-12.407 7.42-31.138 11.19-48.53 3.77l-7.298-3.77 13.744 24.934h151.915l11.19-29.921s-4.987 3.77-14.96 7.42c-16.177 4.986-36.124 3.77-47.314-2.555-4.987-2.554-13.744-8.636-17.515-11.19-6.325-3.649-14.96-4.865-23.718.122z"/><path d="M592.519 580.417h-62.153v-24.934h63.49c9.974 0 18.732-8.636 18.732-18.731 0-9.974-8.636-18.731-18.731-18.731h-48.53l39.894-43.665c2.554-3.77 4.987-7.42 4.987-12.407 0-9.973-8.636-18.73-18.731-18.73-4.987 0-9.974 2.554-13.744 6.324l-43.665 48.53-44.882-48.53c-3.77-3.77-8.635-6.325-13.744-6.325-9.973 0-18.73 8.636-18.73 18.731 0 4.987 1.216 8.636 4.986 12.407l40.016 43.786h-49.868c-9.974 0-18.73 8.636-18.73 18.731 0 9.974 8.635 18.731 18.73 18.731h62.274v24.934h-62.274c-9.974 0-18.73 8.636-18.73 18.731 0 9.974 8.635 18.731 18.73 18.731h62.274v43.544c0 9.973 8.636 18.73 18.731 18.73 9.974 0 18.731-8.635 18.731-18.73v-43.665h62.275c9.973 0 18.73-8.636 18.73-18.731-.12-9.974-10.095-18.731-20.068-18.731z"/></svg>