<?xml version="1.0" standalone="no"?><!DOCTYPE svg PUBLIC "-//W3C//DTD SVG 1.1//EN" "http://www.w3.org/Graphics/SVG/1.1/DTD/svg11.dtd"><svg t="1598234018828" class="icon" viewBox="0 0 1024 1024" version="1.1" xmlns="http://www.w3.org/2000/svg" p-id="1349" xmlns:xlink="http://www.w3.org/1999/xlink" width="200" height="200"><defs><style type="text/css"></style></defs><path d="M717.8368 989.17226667H101.2736c-37.54346667 0-68.07466667-30.54613333-68.07466667-68.1056V101.1552c0-37.55733333 30.5312-68.10453333 68.07466667-68.10453333h616.56426667c37.54346667 0 68.10453333 30.54613333 68.10453333 68.10453333V234.99733333h-59.83573333V101.1552c0-4.55786667-3.71093333-8.2688-8.2688-8.2688H101.2736c-4.52906667 0-8.23893333 3.712-8.23893333 8.2688V921.06666667c0 4.55786667 3.70986667 8.2688 8.23893333 8.2688h616.56426667c4.5568 0 8.2688-3.70986667 8.2688-8.2688V796.72h59.83573333V921.06666667c0 37.55946667-30.56106667 68.1056-68.10666667 68.1056z" p-id="1350"></path><path d="M391.39626667 613.70666667H259.62986667c-16.5376 0-29.91893333-13.39733333-29.91893334-29.91893334 0-16.52266667 13.38133333-29.91786667 29.91893334-29.91786666h131.76746666c16.5376 0 29.91893333 13.39626667 29.91893334 29.91786666-0.00106667 16.52266667-13.3824 29.91786667-29.92 29.91786667z m84.4672 265.9904a29.9136 29.9136 0 0 1-19.19573334-6.96853334c-8.67733333-7.2608-12.5344-18.80106667-9.93386666-29.81546666l46.74666666-198.13333334a29.79413333 29.79413333 0 0 1 6.0192-12.1248l303.53386667-369.60853333c4.76266667-5.82826667 11.6-9.62666667 19.0496-10.6496 81.632-11.10186667 155.08266667 46.79146667 165.95093333 125.99786667 1.0816 7.90293333-1.05173333 15.89333333-5.87306666 22.2336l-294.82666667 385.76426666a29.97333333 29.97333333 0 0 1-11.86133333 9.26186667l-187.6896 81.5584a29.86773333 29.86773333 0 0 1-11.92 2.48426667z m74.2688-214.42346667l-31.43786667 133.2736 125.808-54.6656 281.8848-368.8192c-10.432-37.61706667-45.9872-64.24746667-85.1968-64.20373333L550.13333333 665.2736z" p-id="1351"></path><path d="M885.22026667 505.66186667c-14.72533333 0-27.5808-10.86933333-29.6256-25.87093334-3.1552-23.14133333-15.13493333-43.68-33.74506667-57.80586666-18.6112-14.12586667-41.57546667-20.144-64.77333333-17.0048-16.4192 2.20693333-31.46666667-9.232-33.71733334-25.57866667-2.21973333-16.37546667 9.232-31.46666667 25.59466667-33.70133333 39.0336-5.36106667 77.7472 4.8352 109.06666667 28.63253333 31.3504 23.79733333 51.568 58.37546667 56.88533333 97.36533333 2.2208 16.37653333-9.232 31.45173333-25.62133333 33.68746667-1.376 0.18773333-2.72 0.27733333-4.064 0.27733333zM650.5504 778.47466667c-14.72533333 0-27.552-10.86933333-29.6256-25.872-2.60053333-19.09333333-12.47573333-36.01066667-27.8144-47.6672-15.36853333-11.67253333-34.5056-16.62506667-53.408-14.02453334a29.92 29.92 0 0 1-33.71733333-25.57866666c-2.21973333-16.37653333 9.23306667-31.46666667 25.59466666-33.7024 34.9152-4.83413333 69.59466667 4.30933333 97.70133334 25.65333333 28.0768 21.312 46.1632 52.29866667 50.95466666 87.2256 2.21866667 16.37653333-9.23413333 31.45173333-25.59466666 33.68746667a29.71306667 29.71306667 0 0 1-4.09066667 0.27733333z m-102.9312-326.6304h-287.98933333c-16.5376 0-29.91893333-13.39626667-29.91893334-29.91786667 0-16.52266667 13.38133333-29.91786667 29.91893334-29.91786667h287.9904c16.53653333 0 29.91786667 13.39626667 29.91786666 29.91786667 0 16.52266667-13.38133333 29.91786667-29.91893333 29.91786667z m0-155.94453334h-287.98933333c-16.5376 0-29.91893333-13.39733333-29.91893334-29.91786666 0-16.52266667 13.38133333-29.91893333 29.91893334-29.91893334h287.9904c16.53653333 0 29.91786667 13.39733333 29.91786666 29.91893334 0 16.5216-13.38133333 29.91786667-29.91893333 29.91786666z" p-id="1352"></path></svg>